<mxfile host="app.diagrams.net" modified="2021-05-13T08:16:28.547Z" agent="5.0 (Windows NT 10.0; Win64; x64) AppleWebKit/537.36 (KHTML, like Gecko) Chrome/90.0.4430.93 Safari/537.36 Edg/90.0.818.56" etag="f3C5bYNSScwmqmYztc8k" version="14.6.12" type="github">
  <diagram id="aw4TtTJ2CJ5YBK6EC5cA" name="第 1 页">
    <mxGraphModel dx="1389" dy="840" grid="0" gridSize="10" guides="1" tooltips="1" connect="1" arrows="1" fold="1" page="1" pageScale="1" pageWidth="1169" pageHeight="827" background="#000000" math="0" shadow="0">
      <root>
        <mxCell id="0" />
        <mxCell id="1" parent="0" />
        <mxCell id="WMnvuN_LtXJiwmp-fKAC-5" value="" style="shape=cube;whiteSpace=wrap;html=1;boundedLbl=1;backgroundOutline=1;darkOpacity=0.05;darkOpacity2=0.1;size=93;flipH=1;fillColor=none;strokeColor=#FFFFFF;" parent="1" vertex="1">
          <mxGeometry x="253" y="273.5" width="120" height="235" as="geometry" />
        </mxCell>
        <mxCell id="WMnvuN_LtXJiwmp-fKAC-67" value="" style="shape=cube;whiteSpace=wrap;html=1;boundedLbl=1;backgroundOutline=1;darkOpacity=0.05;darkOpacity2=0.1;size=93;flipH=1;fillColor=#a20025;opacity=50;fontColor=#ffffff;strokeColor=#FFFFFF;" parent="1" vertex="1">
          <mxGeometry x="280" y="273.5" width="105" height="235" as="geometry" />
        </mxCell>
        <mxCell id="WMnvuN_LtXJiwmp-fKAC-4" value="" style="shape=cube;whiteSpace=wrap;html=1;boundedLbl=1;backgroundOutline=1;darkOpacity=0.05;darkOpacity2=0.1;size=106;flipH=1;fillColor=none;strokeColor=#FFFFFF;" parent="1" vertex="1">
          <mxGeometry x="62" y="231" width="120" height="320" as="geometry" />
        </mxCell>
        <mxCell id="WMnvuN_LtXJiwmp-fKAC-6" value="" style="shape=cube;whiteSpace=wrap;html=1;boundedLbl=1;backgroundOutline=1;darkOpacity=0.05;darkOpacity2=0.1;size=67;flipH=1;fillColor=none;strokeColor=#FFFFFF;" parent="1" vertex="1">
          <mxGeometry x="429" y="304.5" width="120" height="173" as="geometry" />
        </mxCell>
        <mxCell id="WMnvuN_LtXJiwmp-fKAC-8" value="" style="shape=cube;whiteSpace=wrap;html=1;boundedLbl=1;backgroundOutline=1;darkOpacity=0.05;darkOpacity2=0.1;size=40;flipH=1;fillColor=none;strokeColor=#FFFFFF;" parent="1" vertex="1">
          <mxGeometry x="637" y="333" width="120" height="120" as="geometry" />
        </mxCell>
        <mxCell id="WMnvuN_LtXJiwmp-fKAC-28" value="" style="edgeStyle=orthogonalEdgeStyle;rounded=0;orthogonalLoop=1;jettySize=auto;html=1;" parent="1" target="WMnvuN_LtXJiwmp-fKAC-27" edge="1">
          <mxGeometry relative="1" as="geometry">
            <mxPoint x="915.4705882352941" y="360.75" as="sourcePoint" />
          </mxGeometry>
        </mxCell>
        <mxCell id="WMnvuN_LtXJiwmp-fKAC-9" value="" style="shape=cube;whiteSpace=wrap;html=1;boundedLbl=1;backgroundOutline=1;darkOpacity=0.05;darkOpacity2=0.1;size=14;flipH=1;fillColor=none;strokeColor=#FFFFFF;" parent="1" vertex="1">
          <mxGeometry x="845" y="360.75" width="131" height="62.5" as="geometry" />
        </mxCell>
        <mxCell id="WMnvuN_LtXJiwmp-fKAC-31" style="edgeStyle=orthogonalEdgeStyle;rounded=0;orthogonalLoop=1;jettySize=auto;html=1;exitX=0.5;exitY=1;exitDx=0;exitDy=0;" parent="1" edge="1">
          <mxGeometry relative="1" as="geometry">
            <mxPoint x="1108.571428571429" y="408" as="targetPoint" />
            <mxPoint x="1075" y="408.5" as="sourcePoint" />
          </mxGeometry>
        </mxCell>
        <mxCell id="WMnvuN_LtXJiwmp-fKAC-15" value="&lt;font color=&quot;#ffffff&quot; style=&quot;font-size: 24px&quot;&gt;256&lt;/font&gt;" style="text;html=1;align=center;verticalAlign=middle;resizable=0;points=[];autosize=1;" parent="1" vertex="1">
          <mxGeometry x="137" y="501" width="50" height="22" as="geometry" />
        </mxCell>
        <mxCell id="WMnvuN_LtXJiwmp-fKAC-16" value="&lt;font color=&quot;#ffffff&quot; style=&quot;font-size: 24px&quot;&gt;256&lt;/font&gt;" style="text;html=1;align=center;verticalAlign=middle;resizable=0;points=[];autosize=1;" parent="1" vertex="1">
          <mxGeometry x="191" y="322" width="50" height="22" as="geometry" />
        </mxCell>
        <mxCell id="WMnvuN_LtXJiwmp-fKAC-17" value="&lt;font color=&quot;#ffffff&quot; style=&quot;font-size: 24px&quot;&gt;3&lt;/font&gt;" style="text;html=1;align=center;verticalAlign=middle;resizable=0;points=[];autosize=1;" parent="1" vertex="1">
          <mxGeometry x="163" y="204" width="24" height="22" as="geometry" />
        </mxCell>
        <mxCell id="WMnvuN_LtXJiwmp-fKAC-18" value="&lt;font color=&quot;#ffffff&quot; style=&quot;font-size: 24px&quot;&gt;128&lt;/font&gt;" style="text;html=1;align=center;verticalAlign=middle;resizable=0;points=[];autosize=1;" parent="1" vertex="1">
          <mxGeometry x="335" y="467" width="50" height="22" as="geometry" />
        </mxCell>
        <mxCell id="WMnvuN_LtXJiwmp-fKAC-19" value="&lt;font color=&quot;#ffffff&quot; style=&quot;font-size: 24px&quot;&gt;128&lt;/font&gt;" style="text;html=1;align=center;verticalAlign=middle;resizable=0;points=[];autosize=1;" parent="1" vertex="1">
          <mxGeometry x="386" y="334" width="50" height="22" as="geometry" />
        </mxCell>
        <mxCell id="WMnvuN_LtXJiwmp-fKAC-20" value="&lt;font color=&quot;#ffffff&quot; style=&quot;font-size: 24px&quot;&gt;64&lt;/font&gt;" style="text;html=1;align=center;verticalAlign=middle;resizable=0;points=[];autosize=1;" parent="1" vertex="1">
          <mxGeometry x="343" y="239" width="36" height="22" as="geometry" />
        </mxCell>
        <mxCell id="WMnvuN_LtXJiwmp-fKAC-21" value="&lt;font color=&quot;#ffffff&quot; style=&quot;font-size: 24px&quot;&gt;64&lt;/font&gt;" style="text;html=1;align=center;verticalAlign=middle;resizable=0;points=[];autosize=1;" parent="1" vertex="1">
          <mxGeometry x="537" y="445" width="36" height="22" as="geometry" />
        </mxCell>
        <mxCell id="WMnvuN_LtXJiwmp-fKAC-22" value="&lt;span style=&quot;color: rgb(255 , 255 , 255) ; font-size: 24px&quot;&gt;64&lt;/span&gt;" style="text;html=1;align=center;verticalAlign=middle;resizable=0;points=[];autosize=1;" parent="1" vertex="1">
          <mxGeometry x="575" y="349.44" width="36" height="22" as="geometry" />
        </mxCell>
        <mxCell id="WMnvuN_LtXJiwmp-fKAC-23" value="&lt;span style=&quot;color: rgb(255 , 255 , 255) ; font-size: 24px&quot;&gt;128&lt;/span&gt;" style="text;html=1;align=center;verticalAlign=middle;resizable=0;points=[];autosize=1;" parent="1" vertex="1">
          <mxGeometry x="499" y="271" width="50" height="22" as="geometry" />
        </mxCell>
        <mxCell id="WMnvuN_LtXJiwmp-fKAC-24" value="&lt;span style=&quot;color: rgb(255 , 255 , 255) ; font-size: 24px&quot;&gt;32&lt;/span&gt;" style="text;html=1;align=center;verticalAlign=middle;resizable=0;points=[];autosize=1;" parent="1" vertex="1">
          <mxGeometry x="769" y="433" width="36" height="22" as="geometry" />
        </mxCell>
        <mxCell id="WMnvuN_LtXJiwmp-fKAC-25" value="&lt;span style=&quot;color: rgb(255 , 255 , 255) ; font-size: 24px&quot;&gt;32&lt;/span&gt;" style="text;html=1;align=center;verticalAlign=middle;resizable=0;points=[];autosize=1;" parent="1" vertex="1">
          <mxGeometry x="786" y="360.75" width="36" height="22" as="geometry" />
        </mxCell>
        <mxCell id="WMnvuN_LtXJiwmp-fKAC-26" value="&lt;span style=&quot;color: rgb(255 , 255 , 255) ; font-size: 24px&quot;&gt;256&lt;/span&gt;" style="text;html=1;align=center;verticalAlign=middle;resizable=0;points=[];autosize=1;" parent="1" vertex="1">
          <mxGeometry x="690" y="304" width="50" height="22" as="geometry" />
        </mxCell>
        <mxCell id="WMnvuN_LtXJiwmp-fKAC-27" value="&lt;span style=&quot;color: rgb(255 , 255 , 255) ; font-size: 24px&quot;&gt;512&lt;/span&gt;" style="text;html=1;align=center;verticalAlign=middle;resizable=0;points=[];autosize=1;" parent="1" vertex="1">
          <mxGeometry x="890.5" y="332" width="50" height="22" as="geometry" />
        </mxCell>
        <mxCell id="WMnvuN_LtXJiwmp-fKAC-29" value="&lt;span style=&quot;color: rgb(255 , 255 , 255) ; font-size: 24px&quot;&gt;31&lt;/span&gt;" style="text;html=1;align=center;verticalAlign=middle;resizable=0;points=[];autosize=1;" parent="1" vertex="1">
          <mxGeometry x="987" y="420" width="36" height="22" as="geometry" />
        </mxCell>
        <mxCell id="WMnvuN_LtXJiwmp-fKAC-30" value="&lt;span style=&quot;color: rgb(255 , 255 , 255) ; font-size: 24px&quot;&gt;31&lt;/span&gt;" style="text;html=1;align=center;verticalAlign=middle;resizable=0;points=[];autosize=1;" parent="1" vertex="1">
          <mxGeometry x="997" y="375" width="36" height="22" as="geometry" />
        </mxCell>
        <mxCell id="WMnvuN_LtXJiwmp-fKAC-32" value="&lt;span style=&quot;color: rgb(255 , 255 , 255) ; font-size: 24px&quot;&gt;3&lt;/span&gt;" style="text;html=1;align=center;verticalAlign=middle;resizable=0;points=[];autosize=1;" parent="1" vertex="1">
          <mxGeometry x="1078.5" y="344" width="24" height="22" as="geometry" />
        </mxCell>
        <mxCell id="WMnvuN_LtXJiwmp-fKAC-33" value="&lt;span style=&quot;color: rgb(255 , 255 , 255) ; font-size: 24px&quot;&gt;30&lt;/span&gt;" style="text;html=1;align=center;verticalAlign=middle;resizable=0;points=[];autosize=1;" parent="1" vertex="1">
          <mxGeometry x="1111" y="375" width="36" height="22" as="geometry" />
        </mxCell>
        <mxCell id="WMnvuN_LtXJiwmp-fKAC-41" style="edgeStyle=orthogonalEdgeStyle;rounded=0;orthogonalLoop=1;jettySize=auto;html=1;exitX=0;exitY=0;exitDx=10;exitDy=47;exitPerimeter=0;fontColor=#FFFFFF;" parent="1" source="WMnvuN_LtXJiwmp-fKAC-34" edge="1">
          <mxGeometry relative="1" as="geometry">
            <mxPoint x="313.42862374441984" y="433.7143990652903" as="targetPoint" />
          </mxGeometry>
        </mxCell>
        <mxCell id="WMnvuN_LtXJiwmp-fKAC-34" value="" style="shape=cube;whiteSpace=wrap;html=1;boundedLbl=1;backgroundOutline=1;darkOpacity=0.05;darkOpacity2=0.1;comic=0;fillColor=#008a00;flipH=1;opacity=50;fontColor=#ffffff;strokeColor=#FFFFFF;" parent="1" vertex="1">
          <mxGeometry x="297" y="381" width="39" height="50" as="geometry" />
        </mxCell>
        <mxCell id="WMnvuN_LtXJiwmp-fKAC-37" value="4x4 Stride 2&lt;br&gt;" style="text;html=1;strokeColor=none;fillColor=none;align=center;verticalAlign=middle;whiteSpace=wrap;rounded=0;comic=0;fontColor=#FFFFFF;" parent="1" vertex="1">
          <mxGeometry x="267" y="434" width="79" height="20" as="geometry" />
        </mxCell>
        <mxCell id="WMnvuN_LtXJiwmp-fKAC-46" style="edgeStyle=orthogonalEdgeStyle;rounded=0;orthogonalLoop=1;jettySize=auto;html=1;exitX=0;exitY=0;exitDx=10;exitDy=47;exitPerimeter=0;fontColor=#FFFFFF;" parent="1" source="WMnvuN_LtXJiwmp-fKAC-47" edge="1">
          <mxGeometry relative="1" as="geometry">
            <mxPoint x="117.42862374441984" y="433.7143990652903" as="targetPoint" />
          </mxGeometry>
        </mxCell>
        <mxCell id="WMnvuN_LtXJiwmp-fKAC-47" value="" style="shape=cube;whiteSpace=wrap;html=1;boundedLbl=1;backgroundOutline=1;darkOpacity=0.05;darkOpacity2=0.1;comic=0;fillColor=#008a00;flipH=1;opacity=50;fontColor=#ffffff;strokeColor=#FFFFFF;" parent="1" vertex="1">
          <mxGeometry x="103" y="379" width="28" height="52" as="geometry" />
        </mxCell>
        <mxCell id="WMnvuN_LtXJiwmp-fKAC-48" value="4x4 Stride 2&lt;br&gt;" style="text;html=1;strokeColor=none;fillColor=none;align=center;verticalAlign=middle;whiteSpace=wrap;rounded=0;comic=0;fontColor=#FFFFFF;" parent="1" vertex="1">
          <mxGeometry x="82.5" y="440" width="79" height="20" as="geometry" />
        </mxCell>
        <mxCell id="WMnvuN_LtXJiwmp-fKAC-49" style="edgeStyle=orthogonalEdgeStyle;rounded=0;orthogonalLoop=1;jettySize=auto;html=1;exitX=0;exitY=0;exitDx=10;exitDy=47;exitPerimeter=0;fontColor=#FFFFFF;" parent="1" source="WMnvuN_LtXJiwmp-fKAC-50" edge="1">
          <mxGeometry relative="1" as="geometry">
            <mxPoint x="492.42862374441984" y="433.7143990652903" as="targetPoint" />
          </mxGeometry>
        </mxCell>
        <mxCell id="WMnvuN_LtXJiwmp-fKAC-50" value="" style="shape=cube;whiteSpace=wrap;html=1;boundedLbl=1;backgroundOutline=1;darkOpacity=0.05;darkOpacity2=0.1;comic=0;fillColor=#008a00;flipH=1;opacity=50;fontColor=#ffffff;strokeColor=#FFFFFF;" parent="1" vertex="1">
          <mxGeometry x="435" y="383" width="58" height="48" as="geometry" />
        </mxCell>
        <mxCell id="WMnvuN_LtXJiwmp-fKAC-55" value="" style="shape=cube;whiteSpace=wrap;html=1;boundedLbl=1;backgroundOutline=1;darkOpacity=0.05;darkOpacity2=0.1;comic=0;fillColor=#008a00;flipH=1;opacity=50;fontColor=#ffffff;strokeColor=#FFFFFF;" parent="1" vertex="1">
          <mxGeometry x="646" y="386" width="82" height="48" as="geometry" />
        </mxCell>
        <mxCell id="WMnvuN_LtXJiwmp-fKAC-56" value="4x4 Stride 1" style="text;html=1;strokeColor=none;fillColor=none;align=center;verticalAlign=middle;whiteSpace=wrap;rounded=0;comic=0;fontColor=#FFFFFF;" parent="1" vertex="1">
          <mxGeometry x="642" y="433" width="79" height="20" as="geometry" />
        </mxCell>
        <mxCell id="WMnvuN_LtXJiwmp-fKAC-59" value="" style="shape=cube;whiteSpace=wrap;html=1;boundedLbl=1;backgroundOutline=1;darkOpacity=0.05;darkOpacity2=0.1;comic=0;fillColor=#008a00;flipH=1;opacity=50;fontColor=#ffffff;strokeColor=#FFFFFF;" parent="1" vertex="1">
          <mxGeometry x="860" y="370.44" width="104" height="42.13" as="geometry" />
        </mxCell>
        <mxCell id="WMnvuN_LtXJiwmp-fKAC-60" value="4x4 Stride 1" style="text;html=1;strokeColor=none;fillColor=none;align=center;verticalAlign=middle;whiteSpace=wrap;rounded=0;comic=0;fontColor=#FFFFFF;" parent="1" vertex="1">
          <mxGeometry x="868" y="429" width="79" height="20" as="geometry" />
        </mxCell>
        <mxCell id="WMnvuN_LtXJiwmp-fKAC-69" value="" style="shape=cube;whiteSpace=wrap;html=1;boundedLbl=1;backgroundOutline=1;darkOpacity=0.05;darkOpacity2=0.1;size=67;flipH=1;fillColor=#0050ef;fontColor=#ffffff;opacity=50;strokeColor=#FFFFFF;" parent="1" vertex="1">
          <mxGeometry x="481" y="304" width="80" height="173" as="geometry" />
        </mxCell>
        <mxCell id="WMnvuN_LtXJiwmp-fKAC-70" value="" style="shape=cube;whiteSpace=wrap;html=1;boundedLbl=1;backgroundOutline=1;darkOpacity=0.05;darkOpacity2=0.1;size=67;flipH=1;fillColor=#a20025;fontColor=#ffffff;opacity=50;strokeColor=#FFFFFF;" parent="1" vertex="1">
          <mxGeometry x="493" y="304.5" width="80" height="173" as="geometry" />
        </mxCell>
        <mxCell id="WMnvuN_LtXJiwmp-fKAC-71" value="" style="shape=cube;whiteSpace=wrap;html=1;boundedLbl=1;backgroundOutline=1;darkOpacity=0.05;darkOpacity2=0.1;size=40;flipH=1;fillColor=#0050ef;fontColor=#ffffff;opacity=50;strokeColor=#FFFFFF;" parent="1" vertex="1">
          <mxGeometry x="716" y="334" width="53" height="120" as="geometry" />
        </mxCell>
        <mxCell id="WMnvuN_LtXJiwmp-fKAC-73" value="" style="shape=cube;whiteSpace=wrap;html=1;boundedLbl=1;backgroundOutline=1;darkOpacity=0.05;darkOpacity2=0.1;size=14;flipH=1;fillColor=#0050ef;fontColor=#ffffff;opacity=50;strokeColor=#FFFFFF;" parent="1" vertex="1">
          <mxGeometry x="962" y="360.75" width="25" height="62.5" as="geometry" />
        </mxCell>
        <mxCell id="WMnvuN_LtXJiwmp-fKAC-77" value="" style="shape=cube;whiteSpace=wrap;html=1;boundedLbl=1;backgroundOutline=1;darkOpacity=0.05;darkOpacity2=0.1;size=40;flipH=1;fillColor=#a20025;fontColor=#ffffff;opacity=50;strokeColor=#FFFFFF;" parent="1" vertex="1">
          <mxGeometry x="730" y="334" width="53" height="120" as="geometry" />
        </mxCell>
        <mxCell id="WMnvuN_LtXJiwmp-fKAC-78" value="" style="shape=cube;whiteSpace=wrap;html=1;boundedLbl=1;backgroundOutline=1;darkOpacity=0.05;darkOpacity2=0.1;size=14;flipH=1;fillColor=#a20025;fontColor=#ffffff;opacity=50;strokeColor=#FFFFFF;" parent="1" vertex="1">
          <mxGeometry x="972" y="361" width="25" height="62.5" as="geometry" />
        </mxCell>
        <mxCell id="WMnvuN_LtXJiwmp-fKAC-79" value="CONV 1" style="text;html=1;align=center;verticalAlign=middle;resizable=0;points=[];autosize=1;fontColor=#FFFFFF;fontSize=30;" parent="1" vertex="1">
          <mxGeometry x="131" y="526" width="122" height="40" as="geometry" />
        </mxCell>
        <mxCell id="WMnvuN_LtXJiwmp-fKAC-80" value="CONV 2" style="text;html=1;align=center;verticalAlign=middle;resizable=0;points=[];autosize=1;fontColor=#FFFFFF;fontSize=30;" parent="1" vertex="1">
          <mxGeometry x="317" y="507" width="122" height="40" as="geometry" />
        </mxCell>
        <mxCell id="WMnvuN_LtXJiwmp-fKAC-81" value="CONV 3" style="text;html=1;align=center;verticalAlign=middle;resizable=0;points=[];autosize=1;fontColor=#FFFFFF;fontSize=30;" parent="1" vertex="1">
          <mxGeometry x="532" y="483" width="122" height="40" as="geometry" />
        </mxCell>
        <mxCell id="WMnvuN_LtXJiwmp-fKAC-82" value="CONV 4" style="text;html=1;align=center;verticalAlign=middle;resizable=0;points=[];autosize=1;fontColor=#FFFFFF;fontSize=30;" parent="1" vertex="1">
          <mxGeometry x="746" y="467" width="122" height="40" as="geometry" />
        </mxCell>
        <mxCell id="WMnvuN_LtXJiwmp-fKAC-83" value="CONV 5&lt;br&gt;" style="text;html=1;align=center;verticalAlign=middle;resizable=0;points=[];autosize=1;fontColor=#FFFFFF;fontSize=30;" parent="1" vertex="1">
          <mxGeometry x="967" y="446" width="122" height="40" as="geometry" />
        </mxCell>
        <mxCell id="WMnvuN_LtXJiwmp-fKAC-84" value="&lt;span style=&quot;font-size: 60px&quot;&gt;70×70 PatchGAN&lt;/span&gt;" style="text;html=1;align=center;verticalAlign=middle;resizable=0;points=[];autosize=1;fontSize=30;fontColor=#FFFFFF;" parent="1" vertex="1">
          <mxGeometry x="333" y="74" width="479" height="50" as="geometry" />
        </mxCell>
        <mxCell id="WMnvuN_LtXJiwmp-fKAC-85" value="X" style="text;html=1;align=center;verticalAlign=middle;resizable=0;points=[];autosize=1;fontColor=#FFFFFF;fontSize=30;" parent="1" vertex="1">
          <mxGeometry x="20" y="409" width="30" height="40" as="geometry" />
        </mxCell>
        <mxCell id="WMnvuN_LtXJiwmp-fKAC-87" value="" style="shape=cube;whiteSpace=wrap;html=1;boundedLbl=1;backgroundOutline=1;darkOpacity=0.05;darkOpacity2=0.1;size=36;flipH=1;fillColor=#a20025;opacity=50;fontColor=#ffffff;strokeColor=#FFFFFF;" parent="1" vertex="1">
          <mxGeometry x="265" y="657" width="57" height="98" as="geometry" />
        </mxCell>
        <mxCell id="WMnvuN_LtXJiwmp-fKAC-90" value="&lt;span style=&quot;font-family: &amp;#34;source code pro&amp;#34; , &amp;#34;dejavu sans mono&amp;#34; , &amp;#34;ubuntu mono&amp;#34; , &amp;#34;anonymous pro&amp;#34; , &amp;#34;droid sans mono&amp;#34; , &amp;#34;menlo&amp;#34; , &amp;#34;monaco&amp;#34; , &amp;#34;consolas&amp;#34; , &amp;#34;inconsolata&amp;#34; , &amp;#34;courier&amp;#34; , monospace , &amp;#34;pingfang sc&amp;#34; , &amp;#34;microsoft yahei&amp;#34; , sans-serif ; font-size: 24px ; background-color: rgb(0 , 0 , 0)&quot;&gt;LeakyReLU&lt;/span&gt;" style="text;html=1;align=center;verticalAlign=middle;resizable=0;points=[];autosize=1;fontSize=30;fontColor=#FFFFFF;shadow=0;" parent="1" vertex="1">
          <mxGeometry x="331" y="691" width="140" height="42" as="geometry" />
        </mxCell>
        <mxCell id="WMnvuN_LtXJiwmp-fKAC-91" value="" style="shape=cube;whiteSpace=wrap;html=1;boundedLbl=1;backgroundOutline=1;darkOpacity=0.05;darkOpacity2=0.1;size=36;flipH=1;fillColor=#0050ef;opacity=50;fontColor=#ffffff;strokeColor=#FFFFFF;" parent="1" vertex="1">
          <mxGeometry x="476.5" y="657" width="57" height="98" as="geometry" />
        </mxCell>
        <mxCell id="WMnvuN_LtXJiwmp-fKAC-92" value="&lt;span style=&quot;color: rgb(248 , 248 , 242) ; font-family: &amp;#34;source code pro&amp;#34; , &amp;#34;dejavu sans mono&amp;#34; , &amp;#34;ubuntu mono&amp;#34; , &amp;#34;anonymous pro&amp;#34; , &amp;#34;droid sans mono&amp;#34; , &amp;#34;menlo&amp;#34; , &amp;#34;monaco&amp;#34; , &amp;#34;consolas&amp;#34; , &amp;#34;inconsolata&amp;#34; , &amp;#34;courier&amp;#34; , monospace , &amp;#34;pingfang sc&amp;#34; , &amp;#34;microsoft yahei&amp;#34; , sans-serif ; background-color: rgb(0 , 0 , 0)&quot;&gt;&lt;font style=&quot;font-size: 24px&quot;&gt;BatchNorm2d&lt;/font&gt;&lt;/span&gt;" style="text;html=1;align=center;verticalAlign=middle;resizable=0;points=[];autosize=1;fontSize=30;fontColor=#FFFFFF;fillColor=#000000;" parent="1" vertex="1">
          <mxGeometry x="541.5" y="696" width="169" height="42" as="geometry" />
        </mxCell>
        <mxCell id="WMnvuN_LtXJiwmp-fKAC-93" value="" style="shape=cube;whiteSpace=wrap;html=1;boundedLbl=1;backgroundOutline=1;darkOpacity=0.05;darkOpacity2=0.1;size=36;flipH=1;fillColor=#e3c800;opacity=50;fontColor=#ffffff;strokeColor=#FFFFFF;" parent="1" vertex="1">
          <mxGeometry x="720.5" y="657" width="57" height="98" as="geometry" />
        </mxCell>
        <mxCell id="WMnvuN_LtXJiwmp-fKAC-94" value="&lt;span style=&quot;color: rgb(248 , 248 , 242) ; font-family: &amp;#34;source code pro&amp;#34; , &amp;#34;dejavu sans mono&amp;#34; , &amp;#34;ubuntu mono&amp;#34; , &amp;#34;anonymous pro&amp;#34; , &amp;#34;droid sans mono&amp;#34; , &amp;#34;menlo&amp;#34; , &amp;#34;monaco&amp;#34; , &amp;#34;consolas&amp;#34; , &amp;#34;inconsolata&amp;#34; , &amp;#34;courier&amp;#34; , monospace , &amp;#34;pingfang sc&amp;#34; , &amp;#34;microsoft yahei&amp;#34; , sans-serif&quot;&gt;&lt;font style=&quot;font-size: 24px&quot;&gt;&lt;span style=&quot;background-color: rgb(0 , 0 , 0)&quot;&gt;Sigmoid&lt;/span&gt;&lt;br&gt;&lt;/font&gt;&lt;/span&gt;" style="text;html=1;align=center;verticalAlign=middle;resizable=0;points=[];autosize=1;fontSize=30;fontColor=#FFFFFF;" parent="1" vertex="1">
          <mxGeometry x="793.5" y="696" width="111" height="42" as="geometry" />
        </mxCell>
        <mxCell id="CmqVxkuEl3J2Q9xtDwk1-1" value="&lt;span style=&quot;color: rgb(255 , 255 , 255) ; font-size: 24px&quot;&gt;30&lt;/span&gt;" style="text;html=1;align=center;verticalAlign=middle;resizable=0;points=[];autosize=1;" parent="1" vertex="1">
          <mxGeometry x="1102.5" y="411" width="36" height="22" as="geometry" />
        </mxCell>
        <mxCell id="OshxXNVsrLyP72BMQMkP-1" value="" style="shape=cube;whiteSpace=wrap;html=1;boundedLbl=1;backgroundOutline=1;darkOpacity=0.05;darkOpacity2=0.1;size=14;flipH=1;strokeColor=#FFFFFF;fillColor=none;" vertex="1" parent="1">
          <mxGeometry x="1071" y="370.56" width="27" height="46.88" as="geometry" />
        </mxCell>
        <mxCell id="OshxXNVsrLyP72BMQMkP-2" value="" style="shape=cube;whiteSpace=wrap;html=1;boundedLbl=1;backgroundOutline=1;darkOpacity=0.05;darkOpacity2=0.1;size=14;flipH=1;fillColor=#e3c800;fontColor=#000000;strokeColor=#FFFFFF;opacity=50;" vertex="1" parent="1">
          <mxGeometry x="1084" y="370.56" width="27" height="46.88" as="geometry" />
        </mxCell>
        <mxCell id="WMnvuN_LtXJiwmp-fKAC-51" value="4x4 Stride 2&lt;br&gt;" style="text;html=1;strokeColor=none;fillColor=none;align=center;verticalAlign=middle;whiteSpace=wrap;rounded=0;comic=0;fontColor=#FFFFFF;" parent="1" vertex="1">
          <mxGeometry x="429" y="432" width="79" height="20" as="geometry" />
        </mxCell>
      </root>
    </mxGraphModel>
  </diagram>
</mxfile>
